<mxfile host="app.diagrams.net" modified="2024-04-22T13:49:45.668Z" agent="Mozilla/5.0 (Windows NT 10.0; Win64; x64; rv:122.0) Gecko/20100101 Firefox/122.0" version="24.2.7" etag="ZRqS9LJbJvMaMxdC4DYu" type="github">
  <diagram name="Page-1" id="Ee3gVDUyqHPBBd9wQpZ6">
    <mxGraphModel>
      <root>
        <mxCell id="0" />
        <mxCell id="1" parent="0" />
      </root>
    </mxGraphModel>
  </diagram>
</mxfile>
